<?xml version="1.0" encoding="UTF-8"?>
<svg id="Layer_2" data-name="Layer 2" xmlns="http://www.w3.org/2000/svg" viewBox="0 0 391.56 141.91">
  <defs>
    <style>
      .cls-1 {
        fill: #112547;
      }
    </style>
  </defs>
  <g id="Layer_1-2" data-name="Layer 1">
    <path class="cls-1" d="M314.66,139.02c-1.62-.11-3.18-.2-4.66-.25-31.24-.96-62.29,3.96-93.57,2.34-10.55-.55-21.08-.15-31.63.31-42.16,1.82-84.08-2.08-126.11-2.55-14.8-.17-31.94,1.26-44.34-8.43C5.16,123.26.75,111.3.1,99.65c-.65-11.64,2.17-23.04,3.97-34.46,1.97-12.51-2.37-30.85,1.67-43.15C10.5,7.59,25.86,4.73,40.77,3.94c8.7-.46,17.22.61,25.82,1.4,28.81,2.63,57.13,1.41,85.98.38,29.7-1.06,59.39-2.12,89.09-3.18,30.91-1.1,62.45-4.21,93.21-1.38,13.57,1.25,35.44-1.78,46.42,8.12,4.4,3.97,6.4,9.98,7.23,15.85,2.42,17.03,3.56,34.3,2.81,51.5-.68,15.48-1.88,33.55-8.68,47.72-11.13,23.16-45.6,16.26-67.99,14.68Z"/>
  </g>
</svg>