<?xml version="1.0" encoding="UTF-8"?>
<svg id="Layer_2" data-name="Layer 2" xmlns="http://www.w3.org/2000/svg" viewBox="0 0 371.73 354.8">
  <defs>
    <style>
      .cls-1 {
        fill: #aad5f5;
        fill-rule: evenodd;
      }

      .cls-2 {
        fill: #d32932;
      }

      .cls-3 {
        fill: #fff;
      }

      .cls-4 {
        fill: #3ea5c1;
      }

      .cls-5 {
        fill: #2c3235;
      }

      .cls-6 {
        fill: #dde7ed;
      }

      .cls-7 {
        fill: #cfdce5;
      }

      .cls-8 {
        fill: #f4cc21;
      }

      .cls-9 {
        fill: #6bc7dd;
      }

      .cls-10 {
        fill: #b6c8d1;
      }
    </style>
  </defs>
  <g id="OBJECTS">
    <g>
      <path class="cls-1" d="M335.9,141.27c-23.23-18.81-24.31-46.41-14.57-67.5,13.07-28.3-12.59-69.75-57.07-70.15C187.42,2.93,27.37,57.03,7.19,108.71c-12.98,33.24-9.95,55.42,22.07,79.98,9.09,6.97,14.51,12.14,12.22,24.43-2.07,11.06-11.48,14.38-17.12,25.23-49.22,94.66,97.13,131.59,201.57,103.84,121.08-32.17,193.2-133.57,109.98-200.92Z"/>
      <g>
        <g>
          <path class="cls-8" d="M248.06,258.03c16.62,7.6,27.61,23.66,28.48,41.61.87,18.06-7.73,37.73-6.46,55.16-14.52-9.72-35.87-11.96-51.15-21.64-15.18-9.62-23.71-27.11-22.11-45.32l-2.77-6.86,50.41-29.33,3.59,6.39Z"/>
          <path class="cls-5" d="M252.54,238.47l1.91,12.95c.24,1.61-.53,3.19-1.93,4.01l-21.51,12.52-17.23,10.03-21.43,12.47c-1.4.82-3.16.7-4.44-.3l-10.31-8.06-3.68-6.32,74.94-43.61,3.68,6.32Z"/>
          <path class="cls-2" d="M117.56,236.18s-22.92,26.22-1.41,63.18l20.26,34.81c1.67,2.87,5.34,3.84,8.21,2.17h0c1.53-.89,2.58-2.4,2.89-4.14l12.03-67.64-22.96-39.46-19.02,11.07Z"/>
          <path class="cls-2" d="M252.26,180.68s34.12-6.97,55.63,29.99l20.26,34.81c1.67,2.87.7,6.54-2.17,8.21h0c-1.53.89-3.36,1.06-5.03.47l-64.75-22.96-22.96-39.46,19.02-11.07Z"/>
          <path class="cls-6" d="M123.82,12.89c32.86,12.65,72.35,37.23,100.12,84.96,23.98,41.21,34.54,101.87,32.07,136.59-.09,1.32-.83,2.49-1.96,3.15l-77.94,45.35c-1.13.66-2.52.72-3.71.15-31.41-15.01-78.92-54.16-102.9-95.37-27.78-47.73-29.64-94.2-24.4-129.03L123.82,12.89Z"/>
          <circle class="cls-3" cx="137.31" cy="126.62" r="51.29"/>
          <path class="cls-2" d="M206.1,221.26c22.91,39.37,41.4,78.1,34.17,82.3s-31.76-31-54.67-70.37c-3.3-5.66-1.38-12.93,4.29-16.22s12.93-1.38,16.22,4.29Z"/>
          <path class="cls-2" d="M123.82,12.89s-4.99,14.4-34.37,31.49c-29.37,17.09-44.35,14.31-44.35,14.31,3.6-23.91,10.54-42.34,14.74-51.92,1.99-4.51,6.65-7.23,11.55-6.72,10.4,1.08,29.86,4.14,52.43,12.83Z"/>
          <path class="cls-4" d="M172.5,106.14c11.31,19.44,4.72,44.36-14.72,55.68-3.91,2.27-8.04,3.82-12.23,4.69-2.87.6-5.78.87-8.67.83-3.6-.04-7.16-.55-10.6-1.53-6.87-1.93-13.23-5.66-18.33-10.98-2.2-2.29-4.17-4.88-5.83-7.74-11.31-19.44-4.72-44.36,14.71-55.67,2.87-1.67,5.86-2.95,8.9-3.85,7.06-2.11,14.44-2.2,21.36-.49,3.47.86,6.83,2.17,9.97,3.91,2.53,1.4,4.92,3.07,7.13,5.01,3.22,2.83,6.04,6.22,8.32,10.13Z"/>
          <path class="cls-9" d="M147.08,87.09l-20.81,78.72c-6.87-1.93-13.23-5.66-18.33-10.98l17.78-67.26c7.06-2.11,14.44-2.2,21.36-.49Z"/>
          <path class="cls-9" d="M164.18,96.01l-18.63,70.5c-2.87.6-5.78.87-8.67.83l20.18-76.34c2.53,1.4,4.92,3.07,7.13,5.01Z"/>
          <path class="cls-7" d="M158.89,163.72c-20.46,11.9-46.78,4.94-58.69-15.51-11.9-20.46-4.95-46.78,15.51-58.69s46.78-4.94,58.69,15.51c11.9,20.46,4.94,46.78-15.51,58.69ZM117.94,93.33c-18.36,10.68-24.6,34.3-13.92,52.66s34.3,24.6,52.66,13.92,24.6-34.3,13.92-52.66c-10.68-18.36-34.3-24.6-52.66-13.92Z"/>
        </g>
        <circle class="cls-10" cx="173.43" cy="277.63" r="1.38"/>
        <circle class="cls-10" cx="181.51" cy="272.93" r="1.38"/>
        <circle class="cls-10" cx="189.59" cy="268.23" r="1.38"/>
        <circle class="cls-10" cx="197.67" cy="263.53" r="1.38"/>
        <circle class="cls-10" cx="250.75" cy="232.64" r="1.38"/>
        <circle class="cls-10" cx="242.67" cy="237.34" r="1.38"/>
        <circle class="cls-10" cx="234.59" cy="242.04" r="1.38"/>
        <circle class="cls-10" cx="226.51" cy="246.75" r="1.38"/>
        <circle class="cls-10" cx="88.29" cy="51.68" r="1.38"/>
        <circle class="cls-10" cx="79.74" cy="55.57" r="1.38"/>
        <circle class="cls-10" cx="70.97" cy="59.08" r="1.38"/>
        <circle class="cls-10" cx="62" cy="62.26" r="1.38"/>
        <circle class="cls-10" cx="52.4" cy="64.35" r="1.38"/>
        <circle class="cls-10" cx="96.37" cy="46.98" r="1.38"/>
        <circle class="cls-10" cx="103.97" cy="41.47" r="1.38"/>
        <circle class="cls-10" cx="111.36" cy="35.58" r="1.38"/>
        <circle class="cls-10" cx="118.55" cy="29.35" r="1.38"/>
        <circle class="cls-10" cx="125.12" cy="22.04" r="1.38"/>
      </g>
    </g>
  </g>
</svg>