<?xml version="1.0" encoding="UTF-8"?>
<svg id="Layer_2" data-name="Layer 2" xmlns="http://www.w3.org/2000/svg" viewBox="0 0 371.73 347.57">
  <defs>
    <style>
      .cls-1 {
        fill: #aad5f5;
      }

      .cls-1, .cls-2, .cls-3, .cls-4, .cls-5, .cls-6, .cls-7, .cls-8 {
        fill-rule: evenodd;
      }

      .cls-2 {
        fill: #fff;
      }

      .cls-3 {
        fill: #636362;
      }

      .cls-4 {
        fill: #d9d9d9;
      }

      .cls-5 {
        fill: #aa7136;
      }

      .cls-6 {
        fill: #000100;
      }

      .cls-7 {
        fill: #c19363;
      }

      .cls-8 {
        fill: #585857;
      }
    </style>
  </defs>
  <g id="OBJECTS">
    <g>
      <path class="cls-1" d="M335.9,137.65c-23.23-18.81-24.31-46.41-14.57-67.5C334.4,41.85,308.74.41,264.26,0,187.42-.69,27.37,53.42,7.19,105.1c-12.98,33.24-9.95,55.42,22.07,79.98,9.09,6.97,14.51,12.14,12.22,24.43-2.07,11.06-11.48,14.38-17.12,25.23-49.22,94.66,97.13,131.59,201.57,103.84,121.08-32.17,193.2-133.57,109.98-200.92Z"/>
      <g>
        <path class="cls-6" d="M248.79,326.11l-.15.12-.82.29c-29.71,10.63-75.3,9.06-103.22-7.72-16.85-8.68-32.2-21.35-42.06-37.47-4.06-6.63-6.93-13.88-8.69-21.44-5.23-22.48-.66-47.48,8.57-68.34,3.28-7.41,6.04-15.11,7.96-22.99,1.03-4.2,1.82-8.48,2.3-12.79-.4.32-.8.62-1.21.93-3.2,2.35-6.72,4.21-10.47,5.51-3.43,1.19-6.77,2.62-10.2,3.82-2.06.72-4.5,1.54-6.97,2.09-3.15.91-6.4,1.43-9.68,1.55-3.71.13-7.42-.25-11.03-1.08-7.62-1.76-14.76-5.48-20.84-10.35-10.07-8.07-17.44-19.26-21.67-31.4-4.22-12.14-5.38-25.49-2.49-38.07,2.59-11.27,8.48-21.82,17.9-28.74,1.44-1.06,2.95-2.02,4.52-2.87.02-.02.04-.04.06-.06,2.85-2.55,7.72-4.08,11.36-5.12,1.77-.51,3.55-.97,5.32-1.45,1.48-.4,2.98-.8,4.43-1.31,3.75-1.3,7.67-2.03,11.63-2.17,3.36-.12,6.72.18,10.01.86,6.03-1.85,12.07-3.71,18.1-5.56l-.32-.1,16.05-4.91c8.23-2.52,16.45-5.03,24.68-7.54l1.34-.41.3.07c7.02-2.14,14.04-4.27,21.06-6.4,4.06-1.23,8.12-2.48,12.2-3.64,1.02-.29,2.03-.62,3.1-.68,6.51-.41,12.92.89,18.79,3.72,1.2.58,2.37,1.21,3.51,1.91.32-.1.65-.2.97-.29,2.16-.65,4.31-1.31,6.48-1.93.73-.21,1.42-.41,2.19-.45,3.83-.23,7.61.54,11.07,2.2,5.13,2.47,9.27,6.74,11.89,11.77,2.81,5.4,3.74,11.32,2.67,16.83,1.75-.97,3.49-1.94,5.24-2.91,3.62-2.02,7.24-4.05,10.9-6,.98-.53,1.93-1.07,3.02-1.37,6.28-1.76,12.79-1.76,19.07-.04,1.35.37,2.68.82,3.98,1.33,1.86-1.04,3.72-2.08,5.6-3.09.67-.36,1.3-.7,2.04-.9,3.65-1.01,7.43-1.01,11.08,0,7.59,2.08,13.72,8.17,16.6,15.41,3.25,8.16,2.16,17.01-3.17,24.03-.22.28-.45.54-.72.77l-3.37,2.92c.67,10-2.2,19.91-8.61,28.34-.25.33-.52.62-.83.89l-6.84,5.93c.17,7.88,2.34,15.96,4.42,23.33,1.65,5.83,3.72,11.62,6.67,16.93,8.92,16.06,17.55,32.75,23.26,50.26,4.89,14.99,7.61,30.99,4.46,46.65-4,19.88-16.59,34.78-32.67,46.42-14.86,10.76-31.35,19.27-48.79,24.72h0ZM251.92,303.1c5.56-3.17,10.97-6.7,16.28-10.46,15.04-10.65,28.12-24.88,29.98-44,1.68-17.26-6.12-34.47-15.24-48.67-3.98-6.2-8.32-12.17-12.71-18.09-3.74-5.05-7.5-10.1-10.71-15.51-2.82-4.74-4.99-9.51-6.67-14.35l-3.68,3.76c-.93.95-2.14,1.47-3.39,1.53l-16.65,14.42c-.57,1.09-1.17,2.17-1.83,3.22-2.97,4.79-6.75,9-11.21,12.44-4.2,3.24-10.09,8.62-15.65,11.97-5.02,3.45-10.65,5.86-16.64,7.1-10.2,2.12-20.84.77-30.41-3.24-1.07-.45-2.12-.93-3.16-1.44-.8,1.5-1.64,2.99-2.5,4.5-2.44,4.26-4.64,8.66-6.51,13.2-4.68,11.4-7.26,23.7-5.7,36.03,1.69,13.38,8.04,25.04,17.66,34.4,1.24,1.21,2.54,2.38,3.87,3.5,5.51,4.63,11.38,8.5,17.61,11.51,2.16.94,4.31,1.83,6.44,2.68.21.08.4.18.58.3,5.79,2.12,11.87,3.55,18.26,4.22,9.04.96,18.14.34,27.05-1.39,6.32-1.23,12.53-3.01,18.59-5.2.15-.07.3-.14.45-.21.25-.11.5-.21.76-.3.48-.17,1.04-.34,1.5-.57l.87-.44.53-.05c.74-.29,1.47-.59,2.21-.89Z"/>
        <g>
          <path class="cls-6" d="M236.32,322.9l-.4,1.1-1.29.56c-12.16,5.3-25.72,7.05-38.89,6.41-13.99-.69-28.03-4.07-40.94-9.45-20.1-8.37-39.21-22.37-50.69-41.14-3.96-6.47-6.75-13.52-8.46-20.9-5.14-22.09-.59-46.71,8.46-67.18,8.09-18.3,13.64-39.75,9.62-59.77-2.07-10.32-7.3-21.7-15.84-28.26l-1.71-1.32.55-2.09c1.58-6.04,5.02-11.88,10.88-14.59,7.49-3.46,15.5-.32,21.66,4.33,10.1,7.61,18.14,20.75,23.76,31.86,15,29.66,8.85,55.52-6.87,82.92-8.69,15.15-14.67,32.71-12.44,50.37,1.75,13.8,8.29,25.83,18.19,35.48,1.28,1.25,2.6,2.44,3.97,3.59,30.24,25.4,65.25,23.59,99.37,8.88.81-.29,2.05-.7,2.78-1.15l6.75-4.13-1.89,7.68c-.66,2.66-3.7,4.59-5.92,5.89-2.87,1.68-5.96,3.13-8.96,4.57-1.99.95-10.24,4.74-11.66,6.34Z"/>
          <path class="cls-5" d="M99.86,101.69c12.88,9.89,30.18,40,7.22,91.93-11.3,25.55-15.99,59.24-.19,85.06,24.23,39.62,86.24,60.42,126.45,42.9,1.47-4.1,25.28-11.8,26.37-16.26-21.68,9.81-39.4,11.21-48.51,11.76-44.27,2.66-109.55-40.7-67.88-113.32,14.02-24.42,21.99-49.76,6.79-79.83-22.72-44.93-45.12-41.84-50.25-22.24Z"/>
          <path class="cls-6" d="M123.64,150.33c-.03-.63.46-1.17,1.09-1.19.63-.03,1.17.46,1.19,1.09.51,11.32-3.59,22.37-8.27,35-4.3,11.59-9.1,24.52-11.19,40.08-1.21,9-1.21,17.81.05,26.19,1.23,8.14,3.67,15.87,7.37,22.96,6.49,12.43,17.74,23.27,30.77,31.47,14.09,8.87,30.23,14.64,44.67,16,1.68.16,8.15.52,14.73.42,3.87-.06,7.78-.28,10.75-.8.62-.11,1.22.31,1.33.93.11.62-.31,1.22-.93,1.33-3.07.54-7.11.77-11.12.83-6.67.1-13.26-.27-14.97-.43-14.8-1.39-31.3-7.28-45.69-16.34-13.34-8.4-24.88-19.54-31.58-32.35-3.83-7.33-6.34-15.3-7.61-23.68-1.3-8.59-1.29-17.62-.05-26.84,2.13-15.84,6.97-28.88,11.3-40.57,4.6-12.4,8.63-23.25,8.13-34.1Z"/>
          <path class="cls-6" d="M142.47,188.68c.27-.57.96-.81,1.53-.54.57.27.82.96.54,1.53-12.54,26.34-21.12,49.42-17.76,69.27,3.34,19.75,18.57,36.49,53.66,50.37.59.23.88.9.65,1.49-.23.59-.9.88-1.49.65-35.96-14.23-51.61-31.57-55.08-52.13-3.46-20.46,5.23-43.92,17.95-70.64Z"/>
        </g>
        <g>
          <path class="cls-6" d="M211.95,23.54c3.52-.22,6.98.49,10.16,2.02,4.77,2.29,8.62,6.29,11.06,10.96,4.89,9.39,3.71,20.51-4.51,27.67-.18.16-.36.28-.57.4l-64.3,35.29c-.96.53-2.03.55-3.01.06-.98-.49-1.61-1.35-1.77-2.44l-7.71-52.73c-.23-1.6.72-3.11,2.26-3.58,16.71-5.13,33.42-10.28,50.15-15.35,2.15-.65,4.3-1.31,6.45-1.92.59-.17,1.18-.35,1.79-.38Z"/>
          <path class="cls-8" d="M154.51,44.31c57.12-17.54,57.6-17.52,57.6-17.52,16.68-1.06,28.54,22.64,14.41,34.95l-64.3,35.29-7.71-52.73Z"/>
          <path class="cls-6" d="M70.15,53.91c31.64-9.72,63.29-19.48,94.97-29.06,4.05-1.23,8.11-2.47,12.18-3.63.79-.23,1.83-.57,2.71-.62,6.2-.4,12.28.85,17.88,3.54,8.47,4.07,15.31,11.19,19.62,19.48,8.63,16.59,6.68,36.19-7.87,48.87-.19.16-.36.28-.57.4l-121.79,66.84c-.96.53-2.03.55-3.01.06-.98-.49-1.61-1.35-1.77-2.44l-14.6-99.87c-.23-1.6.72-3.1,2.26-3.58Z"/>
          <path class="cls-3" d="M71.1,57.02c108.2-33.23,109.11-33.18,109.11-33.18,31.59-2.01,54.06,42.87,27.28,66.2l-121.79,66.85-14.6-99.87Z"/>
          <path class="cls-8" d="M106.29,46.22c12.54-3.84,22.95-7.02,31.6-9.66l2.34.03,27.62,36.56,50.62-17.48c1.12,5.09,1.26,10.36.22,15.47l-90.34,62.34-4.5,2.47-3.46-47.24c9.69-3.03,33.2-11.8,19.84-26.45-6.37-6.99-16.76-14.24-33.06-15.94-.3-.03-.59-.06-.88-.09Z"/>
          <path class="cls-6" d="M117.74,39.11c8.23-2.52,16.45-5.03,24.68-7.54l.86-.26.87.21c33.77,8.3,42.18,43.71,39.8,74.13l-.14,1.75-30.82,16.92,1.16-6.66c2.97-17.05,3.78-37.28-6.34-52.27-7.09-10.5-18.17-16.49-30.05-20.06l-10.27-3.09,10.26-3.14Z"/>
          <path class="cls-5" d="M118.7,42.22c9.56-2.92,17.72-5.42,24.68-7.54,32.98,8.1,39.45,43.65,37.33,70.72l-23.35,12.82c6.9-39.58-3.45-65.42-38.66-76Z"/>
          <path class="cls-6" d="M183.08,95.1c-.48.19-.97.34-1.48.45-6.7,1.52-12.9-3.4-16.07-8.88-2.14-3.7-3.32-8.11-3.06-12.39.24-3.99,1.76-7.98,5.01-10.48,1.22-.94,2.61-1.6,4.12-1.94.45-.1.9-.18,1.34-.22,5.38-2.4,10.78-4.77,16.22-7.05,3.29-1.39,6.61-2.77,9.96-4,1.31-.48,2.84-1.06,4.22-1.32.2-.04.4-.06.59-.08,2.79-1.18,5.79-1.43,8.75-.56,4.65,1.37,8.28,5.21,10.26,9.53,3.43,7.47,2.04,16.37-5.78,20.35l-32.01,16.29c-.67.34-1.37.44-2.07.3Z"/>
          <path class="cls-7" d="M171.49,65.85c32.64-14.6,33.06-13.37,33.06-13.37,12.84-6.41,24.16,16.5,11.14,23.12l-32.01,16.29-12.19-26.05Z"/>
          <path class="cls-6" d="M167,63.18c1.31-1.01,2.81-1.72,4.42-2.09,7.05-1.6,13.59,3.47,16.93,9.25,4.12,7.12,5.06,18.36-2.15,23.9-1.31,1.01-2.81,1.72-4.43,2.09-7.04,1.6-13.58-3.47-16.93-9.25-4.12-7.12-5.06-18.36,2.15-23.9Z"/>
          <path class="cls-7" d="M169.47,66.39c-4.56,3.5-5.05,11.86-1.11,18.66,3.94,6.81,10.83,9.48,15.39,5.98,4.55-3.5,5.05-11.86,1.11-18.66-3.94-6.81-10.83-9.49-15.38-5.98Z"/>
          <path class="cls-6" d="M62.33,50.97c3.58-1.24,7.31-1.94,11.1-2.07,11.19-.4,22.02,4.11,30.66,11.03,9.8,7.85,16.97,18.76,21.08,30.57,4.11,11.81,5.25,24.81,2.43,37.05-2.49,10.83-8.13,21.01-17.2,27.67-3.05,2.24-6.41,4.01-9.99,5.26-3.42,1.19-6.77,2.62-10.2,3.82-3.65,1.28-9.02,3.02-12.89,2.57-21.72-2.55-33.44-27.78-39.75-45.93-6.51-18.72-12.74-47.27,4.27-62.48,4.31-3.85,14.83-5.54,20.48-7.51Z"/>
          <path class="cls-3" d="M63.4,54.04c-4.44,1.54-15.97,3.8-19.39,6.86-13.91,12.43-11.33,36.07-3.37,58.99,7.67,22.05,19.15,41.66,37.05,43.76,5.27.62,16.52-4.46,21.64-6.24,22.49-7.82,32.68-37.3,22.75-65.84-9.92-28.54-36.2-45.35-58.69-37.53Z"/>
          <path class="cls-6" d="M47.11,56.26c3.58-1.24,7.31-1.94,11.1-2.07,11.19-.4,22.02,4.11,30.66,11.03,9.8,7.85,16.97,18.76,21.08,30.57,4.11,11.81,5.24,24.81,2.43,37.05-2.49,10.83-8.13,21.01-17.2,27.67-3.05,2.24-6.41,4.01-9.99,5.26-3.58,1.24-7.31,1.94-11.1,2.07-11.19.4-22.02-4.11-30.66-11.03-9.8-7.85-16.97-18.76-21.08-30.57-4.11-11.81-5.25-24.81-2.43-37.05,2.49-10.83,8.13-21.01,17.2-27.67,3.05-2.24,6.41-4.01,9.99-5.26Z"/>
          <path class="cls-8" d="M48.18,59.33c-22.49,7.82-32.68,37.3-22.75,65.84,9.93,28.55,36.2,45.35,58.69,37.53,22.49-7.82,32.68-37.3,22.75-65.85-9.93-28.54-36.2-45.35-58.69-37.53Z"/>
          <path class="cls-6" d="M108.27,144.53c-4.55,9.28-15.26,15.34-25.56,14.3-9.83-1-18.99-5.39-26.46-11.77-8.2-7-14.25-16.26-17.78-26.42-6.6-18.99-4.21-41.99,10.37-56.75,6.83-6.92,20.28-9.85,29.21-5.77,15.39,7.02,26.5,21.98,31.9,37.68,2.84,8.25,4.25,17.01,3.9,25.73-.31,7.92-2.08,15.86-5.58,22.99Z"/>
          <path class="cls-2" d="M105.35,143.1c6.27-12.78,7.23-29.65,1.52-46.24-5.81-16.87-17.21-29.86-30.18-35.78-7.68-3.51-19.68-.85-25.55,5.1-12.23,12.39-16.61,33.26-9.61,53.4,7.11,20.46,23.91,34.23,41.5,36.01,8.98.91,18.38-4.46,22.31-12.49Z"/>
          <path class="cls-6" d="M305.09,82.51c.72,9.48-1.97,18.87-8.06,26.89-.14.19-.28.34-.46.49l-103.71,89.78c-.85.74-1.93.98-3.02.67-1.09-.31-1.88-1.08-2.21-2.16l-29.72-95.1c-.46-1.48.16-3.05,1.51-3.81,28.17-15.82,56.32-31.68,84.56-47.38,3.61-2.01,7.22-4.03,10.86-5.98.72-.39,1.63-.93,2.48-1.16,5.82-1.64,11.84-1.63,17.67-.03,1.33.36,2.64.81,3.91,1.32.5-.27.99-.55,1.48-.82,1.91-1.06,3.83-2.14,5.75-3.17.54-.29,1.07-.59,1.66-.75,3.33-.93,6.77-.92,10.11,0,7.04,1.93,12.71,7.62,15.38,14.32,3.01,7.57,2.03,15.72-2.92,22.24-.14.19-.28.34-.46.49l-4.81,4.17Z"/>
          <path class="cls-8" d="M237.33,73.07c50.85-28.56,51.31-28.63,51.31-28.63,15.5-4.35,30.44,16.54,19.13,31.43l-54.75,47.4-15.69-50.21Z"/>
          <path class="cls-6" d="M257.11,43.99c5.96-1.67,12.12-1.67,18.09-.03,12.69,3.47,22.91,13.79,27.72,25.86,5.43,13.65,3.67,28.3-5.26,40.06-.18.24-.35.42-.58.61l-103.71,89.78c-1.06.92-2.4,1.22-3.76.83-1.35-.38-2.34-1.34-2.75-2.69l-29.72-95.1c-.58-1.84.2-3.79,1.88-4.74,28.17-15.82,56.33-31.68,84.56-47.38,3.61-2.01,7.23-4.04,10.87-5.99.81-.43,1.73-.97,2.65-1.22Z"/>
          <path class="cls-3" d="M161.01,102.11c96.32-54.09,97.19-54.22,97.19-54.22,29.35-8.25,57.65,31.33,36.24,59.54l-103.71,89.78-29.72-95.1Z"/>
          <path class="cls-8" d="M188.74,86.55c8.88-4.98,16.62-9.32,23.38-13.1,2.19.31,4.66.72,7.46,1.26,16.33,3.11,29.95,19.84,29.95,19.84l26.45,1.56,25.49-16.46c1.47,9.18-.38,19.02-7.03,27.78l-87.7,75.92c4.43-16.92,15.17-43.68,15.17-43.68,0,0,12.83-8.17,14-10.5,1.17-2.33,2.92-5.25-6.81-20.03-8.46-12.86-29.74-21.16-40.37-22.58Z"/>
          <path class="cls-6" d="M189.94,79.9c5.71-3.27,11.48-6.12,17.41-8.95,2.25-1.08,4.5-2.15,6.73-3.27.5-.25.99-.36,1.55-.34,14.68.4,29.05,4.44,39.11,15.72,11.89,13.34,14.09,32.72,13.16,49.85-.05.82-.35,1.51-.92,2.1l-19.09,19.49c-1.02,1.04-2.54,1.28-3.83.61-1.29-.68-1.96-2.06-1.69-3.49,2.84-14.85,1.5-31.2-7.44-43.85-5.11-7.23-12.11-13.31-20.03-17.29-6.96-3.5-15.1-5.57-22.9-4.53-1.56.21-3.01-.69-3.51-2.18s.1-3.08,1.46-3.87Z"/>
          <path class="cls-5" d="M191.56,82.72c9.4-5.39,16.13-8.2,23.98-12.13,37.78,1.04,51.07,26.24,49.11,62.15l-19.09,19.49c3.46-18.1.4-34.48-7.98-46.34-11.19-15.83-30.07-25.31-46.02-23.17Z"/>
          <path class="cls-6" d="M148.89,95.84c5.28-4.07,11.35-6.85,17.88-8.21,9.84-2.05,20.09-.74,29.32,3.13,10.04,4.21,18.63,11.28,25.04,20.04,6.87,9.4,11.12,20.57,11.91,32.21.73,10.78-1.57,21.74-7.29,30.98-2.85,4.61-6.48,8.65-10.77,11.96-5.38,4.15-14.62,12.76-20.97,14.33-3.8.94-7.7,1.16-11.58.66-16.6-2.16-30.34-17.16-39.69-29.95-12.19-16.67-24.43-40.93-12-60.77,1.92-3.07,6.46-6.28,9.43-8.36,1.66-1.16,3.35-2.29,5.02-3.42,1.24-.84,2.52-1.68,3.7-2.59Z"/>
          <path class="cls-3" d="M150.88,98.42c-3.99,3.07-14.79,9.39-17.38,13.52-10.54,16.82-1.9,38.29,11.87,57.12,13.25,18.12,29.65,32.55,47.87,28.06,5.37-1.32,15.17-10.21,19.77-13.75,20.2-15.56,22.67-47.18,5.51-70.64-17.16-23.46-47.44-29.86-67.64-14.31Z"/>
          <path class="cls-6" d="M135.23,106.36c5.28-4.07,11.35-6.85,17.88-8.21,9.84-2.05,20.09-.74,29.32,3.13,10.04,4.21,18.63,11.28,25.04,20.04,6.87,9.39,11.12,20.57,11.91,32.21.73,10.78-1.57,21.74-7.29,30.98-2.85,4.61-6.48,8.65-10.77,11.96-5.28,4.07-11.35,6.85-17.88,8.21-9.84,2.05-20.09.74-29.32-3.13-10.04-4.21-18.63-11.28-25.04-20.04-6.87-9.4-11.12-20.57-11.91-32.21-.73-10.78,1.57-21.74,7.29-30.98,2.85-4.6,6.48-8.65,10.77-11.95Z"/>
          <path class="cls-8" d="M137.21,108.94c-20.2,15.56-22.67,47.18-5.51,70.64,17.15,23.46,47.44,29.86,67.64,14.31,20.2-15.56,22.67-47.18,5.51-70.64s-47.44-29.86-67.64-14.31Z"/>
          <path class="cls-6" d="M218.61,167.38c-2.44,13.24-9.78,20.71-22.89,23.68-19.97,4.52-40.25-4.4-52.18-20.7-11.44-15.64-14.23-36.6-6.11-54.36.54-1.17,1.12-2.33,1.75-3.46,5.52-9.91,15.55-16.07,27.01-15.21,16.63,1.25,31.54,10.69,41.28,24,9.61,13.14,14.1,29.94,11.14,46.06Z"/>
          <path class="cls-2" d="M215.41,166.8c2.61-14.18-.79-30.19-10.56-43.55-10.03-13.71-24.53-21.59-38.89-22.67-9.92-.75-18.85,4.44-23.92,13.55-9.02,16.2-8.02,37.68,4.14,54.31,11.97,16.37,31.37,23.4,48.83,19.45,11.94-2.7,18.23-9.23,20.41-21.09Z"/>
          <path class="cls-2" d="M152.37,149.27c.67-33.82,39.86-37.38,48.06-8.56,2.28,8.02.68,18.61-5.25,25.65-8.64,10.26-43.43,13.85-42.81-17.09Z"/>
          <path class="cls-6" d="M180.45,166.56c9.39,0,17.06-7.66,17.06-17.06s-7.66-17.06-17.06-17.06-17.06,7.66-17.06,17.06,7.66,17.06,17.06,17.06Z"/>
          <path class="cls-2" d="M168.85,145.24c3.26,0,5.92-2.66,5.92-5.92s-2.66-5.92-5.92-5.92-5.92,2.66-5.92,5.92,2.66,5.92,5.92,5.92Z"/>
          <path class="cls-2" d="M50.06,112.44c.67-33.82,39.86-37.38,48.06-8.56,2.28,8.02.68,18.61-5.25,25.65-8.64,10.26-43.43,13.85-42.82-17.09Z"/>
          <path class="cls-6" d="M78.14,129.73c9.39,0,17.06-7.66,17.06-17.06s-7.66-17.06-17.06-17.06-17.06,7.66-17.06,17.06,7.66,17.06,17.06,17.06Z"/>
          <path class="cls-2" d="M66.53,108.41c3.26,0,5.92-2.66,5.92-5.92s-2.66-5.92-5.92-5.92-5.92,2.66-5.92,5.92,2.66,5.92,5.92,5.92Z"/>
          <path class="cls-6" d="M173.72,73.72c-1.85,1.42-2.05,4.8-.45,7.56,1.6,2.76,4.39,3.84,6.23,2.42,1.84-1.42,2.05-4.8.45-7.56-1.6-2.76-4.38-3.84-6.23-2.42Z"/>
          <path class="cls-6" d="M122.41,40.54c-.37-.08-.6-.45-.52-.82.08-.37.45-.6.82-.52,8.51,1.92,18.04,5.99,25.63,12.97,6.04,5.55,10.86,12.95,12.97,22.56,1.87,8.53,2.3,11.44,2.38,13.49.08,1.97-.15,3.29-.8,1.23-.86-2.71-1.46-7.74-2.93-14.43-2.04-9.31-6.71-16.46-12.56-21.84-7.4-6.8-16.7-10.77-25-12.64Z"/>
          <path class="cls-6" d="M195.25,80.1c-.38.05-.72-.22-.77-.6-.05-.38.22-.72.59-.77,1.79-.23,3.66-.31,5.59-.25,10.17.34,21.94,4.82,31.73,13.67,9.77,8.85,17.58,22.06,19.87,39.9.57,4.43.8,9.15.63,14.15-.01.38-.33.68-.71.66-.38-.01-.68-.33-.66-.71.16-4.93-.06-9.58-.62-13.94-2.25-17.47-9.88-30.4-19.43-39.05-9.53-8.63-20.97-12.99-30.85-13.32-1.86-.06-3.65.02-5.37.24Z"/>
          <path class="cls-6" d="M183.6,67.57c-.35.15-.75-.02-.9-.37-.14-.35.02-.75.37-.9l33.38-13.78c.35-.14.75.02.9.37.14.35-.02.75-.37.9l-33.38,13.77Z"/>
          <path class="cls-6" d="M189.48,74.68c-.34.17-.75.03-.92-.31-.17-.34-.03-.75.31-.92,2.04-1.02,31.85-15.36,31.93-15.4.34-.16.75-.02.92.32.16.34.02.75-.32.92-.09.04-30.07,14.47-31.92,15.39Z"/>
          <path class="cls-4" d="M160.7,114.68c.22-.17.45-.33.68-.49.92-.64,1.88-1.21,2.87-1.71,1.97-1,4.07-1.72,6.26-2.14.55-.11,1.12-.19,1.68-.26,1.56-.19,3.15-.22,4.77-.1.28.02.56.04.84.07.34.03.67.07,1.01.11,7.55.87,15.08,3.61,21.92,8.07-4.67-5.12-10.02-9.19-15.72-12.14-.35-.18-.71-.36-1.07-.54-.85-.42-1.71-.81-2.57-1.17-.19-.08-.39-.16-.59-.24-4.84-1.98-9.85-3.18-14.84-3.56-.7-.05-1.39-.08-2.08-.07-1.57.01-3.1.17-4.59.48-.48.1-.96.21-1.43.33-.29.08-.57.16-.86.25-.34.1-.67.22-1.01.34-5.18,1.85-9.67,5.49-12.92,10.5-.36.56-.71,1.13-1.04,1.73-.26.46-.5.92-.74,1.39-2.14,4.17-3.64,8.67-4.47,13.32-.24,1.33-.42,2.66-.55,4.01-1.16,12.07,2.04,24.84,9.9,35.59,2.13,2.91,4.49,5.52,7.03,7.83.87.79,1.75,1.54,2.66,2.25,1.41,1.11,2.86,2.14,4.35,3.07-1.05-1.19-2.06-2.45-3.02-3.76-.25-.34-.5-.69-.74-1.03-.82-1.17-1.58-2.37-2.29-3.59-7.94-13.62-9.12-29.66-4.08-43.25.49-1.32,1.04-2.62,1.65-3.9.38-.81.79-1.6,1.23-2.39.03-.05.06-.1.09-.16.04-.07.07-.13.11-.2,1.23-2.17,2.68-4.12,4.31-5.81.02-.02.03-.04.05-.05,1-1.03,2.06-1.96,3.18-2.79Z"/>
          <path class="cls-4" d="M101.51,84.93c-6.26-11.02-15.1-19.42-24.81-23.86-1.06-.48-2.19-.85-3.39-1.1-.59-.13-1.2-.23-1.82-.3-1.08-.13-2.19-.18-3.31-.16-6.33.14-13.07,2.65-17.03,6.66-1.69,1.71-3.22,3.57-4.6,5.58,6.27-3.34,14.8-4.32,20.75-1.6.88.4,1.76.84,2.63,1.31,1.22.66,2.42,1.38,3.6,2.16,24.28,16.03,35.3,50.29,23,77.32-.19.41-.38.82-.58,1.23-.14.28-.28.56-.43.83,2.48-1.31,4.73-3.05,6.58-5.12,1.3-1.45,2.4-3.06,3.25-4.79,2.11-4.3,3.62-9.06,4.47-14.12.29-1.69.5-3.42.64-5.17.68-8.58-.44-17.81-3.59-26.95-1.05-3.06-2.29-5.99-3.69-8.78-.54-1.07-1.1-2.12-1.68-3.15Z"/>
          <path class="cls-6" d="M59.06,56.06c.37-.08.74.16.81.53.08.37-.16.74-.53.81-9.45,1.98-17.32,7.85-22.92,15.59-6.04,8.36-9.44,18.89-9.34,29.09.08,8.52,2.33,17.45,6.15,25.76,3.9,8.49,9.45,16.32,16,22.38,7.07,6.54,15.3,11.03,23.92,12.07,7.62.92,15.56-.85,23.25-6.31.31-.22.74-.15.96.16.22.31.15.74-.16.96-8,5.67-16.26,7.52-24.21,6.55-8.91-1.08-17.41-5.7-24.69-12.44-6.69-6.19-12.34-14.17-16.32-22.82-3.9-8.48-6.19-17.6-6.28-26.32-.1-10.5,3.39-21.32,9.6-29.91,5.79-8,13.94-14.07,23.75-16.13Z"/>
          <path class="cls-6" d="M146.5,101.06c.33-.19.75-.08.94.25.19.33.08.75-.25.94-6.71,3.91-12.14,9.94-15.92,16.95-3.92,7.28-6.06,15.6-5.98,23.72.1,10.32,3.81,20.92,9.91,30.14,5.09,7.69,11.84,14.41,19.54,19.19,7.68,4.76,16.31,7.58,25.18,7.5,7.62-.08,15.43-2.3,22.98-7.3.32-.21.74-.12.95.19.21.32.12.74-.19.95-7.79,5.15-15.85,7.45-23.73,7.52-9.14.09-18.02-2.81-25.91-7.7-7.87-4.88-14.77-11.74-19.96-19.59-6.24-9.43-10.03-20.3-10.13-30.89-.08-8.35,2.11-16.91,6.14-24.39,3.89-7.23,9.51-13.45,16.44-17.49Z"/>
          <path class="cls-6" d="M312.97,55.03c.24-.3.67-.35.97-.11.3.24.35.67.11.97-5.35,6.73-14.21,11.07-14.24,11.08-.34.17-.75.03-.92-.31-.17-.34-.03-.75.31-.92.03-.01,8.61-4.21,13.77-10.7Z"/>
          <path class="cls-6" d="M216.66,46.4c-.37.11-.75-.1-.85-.46-.11-.37.1-.75.47-.85,11.63-3.43,14.79-8.08,14.8-8.1.22-.31.64-.39.96-.17.31.22.39.64.17.96-.01.01-3.44,5.06-15.54,8.63Z"/>
          <path class="cls-2" d="M79.57,54.42c14.19,3.18,27.64,14.33,35.62,30.42.56,1.12,1.09,2.27,1.59,3.44.65,1.52,1.26,3.07,1.81,4.66,1.37,3.93,2.35,7.87,2.97,11.77.61,3.79.87,7.54.82,11.19-.04,2.46-.22,4.88-.54,7.25.3-.63.61-1.26.93-1.88.52-1,1.08-1.98,1.68-2.95.44-.71.9-1.41,1.38-2.1.33-7.92-.85-16.32-3.75-24.65-.22-.64-.45-1.27-.69-1.9-.14-.38-.29-.76-.44-1.14-.39-.99-.81-1.96-1.24-2.92-7.74-17.04-21.5-28.95-36.11-32.44-2.55-.61-5.13-.96-7.71-1.04-4.21-.13-8.42.48-12.5,1.9-.23.08-.47.16-.73.24.29.02.57.05.86.08,2.64-.6,5.31-.89,7.99-.87,2.69.01,5.39.33,8.05.93Z"/>
          <path class="cls-2" d="M197.57,99.2c6.53,3.81,12.53,9.13,17.44,15.86,5.11,6.98,8.47,14.69,10.15,22.48,2.46,11.4,1.3,22.97-3.32,32.73-1.69,3.57-3.84,6.9-6.45,9.89-.65.74-1.32,1.46-2.02,2.16-.23.43-.48.85-.72,1.27-.02.03-.04.06-.06.09.14-.11.28-.22.41-.32,1.51-1.16,2.91-2.41,4.22-3.74,1.29-1.31,2.48-2.7,3.58-4.15,2.03-2.69,3.72-5.61,5.07-8.7,4.18-9.52,5.15-20.65,2.78-31.62-1.68-7.78-5.05-15.47-10.14-22.44-4.83-6.6-10.69-11.85-17.08-15.64-1.11-.66-2.25-1.28-3.39-1.85-2.5-1.25-5.05-2.28-7.65-3.1-.49-.16-.99-.3-1.48-.44-.06-.02-.11-.03-.17-.05-1.03-.28-2.06-.53-3.09-.75-.47-.1-.95-.19-1.42-.27-.01,0-.02,0-.03,0-.4-.07-.8-.14-1.2-.2-.31-.05-.62-.09-.93-.13-.22-.03-.44-.06-.67-.08-.16-.02-.32-.04-.49-.05-1.61-.17-3.23-.25-4.83-.24-.31,0-.61,0-.92.01-.26,0-.51.01-.77.02-.58.02-1.17.06-1.75.11-1.4.11-2.79.3-4.16.55-.31.06-.61.12-.91.18-2.04.42-4.04.99-6,1.71-.76.28-1.52.59-2.26.91-.28.12-.56.25-.83.38-.8.37-1.59.77-2.36,1.2-1.6.88-3.16,1.88-4.66,3,1.52-.9,3.08-1.7,4.67-2.38.82-.35,1.64-.68,2.48-.97.25-.09.5-.17.74-.26.79-.26,1.59-.5,2.4-.72,2.43-.65,4.92-1.07,7.43-1.27.33-.03.67-.05,1.01-.07.04,0,.08,0,.12,0,.19-.01.38-.02.57-.03.35-.01.7-.03,1.05-.03,1.78-.03,3.57.04,5.36.22.25.02.5.05.75.08,1,.12,2.01.27,3.01.45,1.09.2,2.19.44,3.27.72.4.1.8.21,1.19.32.23.07.47.13.7.2,0,0,.01,0,.02,0,2.69.8,5.34,1.84,7.93,3.11,1.15.56,2.3,1.18,3.42,1.83Z"/>
          <path class="cls-7" d="M130.75,38.74c6.4,2.89,15.27,7.99,21.74,14.24.15.15.3.3.45.45,1.27,1.26,2.44,2.56,3.47,3.9.7.92,1.34,1.85,1.9,2.8,4.38,7.4,15.53-.56,13.57-3.96-3-5.21-6.86-9.85-11.74-13.59-1.09-.83-2.22-1.62-3.41-2.36-3.78-2.34-8.09-4.19-12.98-5.44-.13-.03-.25-.06-.38-.1-3.91,1.19-8.2,2.5-12.9,3.94.09.04.18.08.28.12Z"/>
          <path class="cls-7" d="M216.32,78.94c.94.34,1.88.7,2.82,1.08,7.36,2.98,14.5,7.15,18.72,12,2.11,2.43,4.36,3.51,6.55,3.7,1.87.16,3.7-.32,5.4-1.16,2.36-1.17,4.45-3.04,5.96-4.85-4.26-6.4-10.13-11.41-17.83-14.69-4.17-1.78-8.88-3.06-14.16-3.78-.58-.08-1.16-.15-1.76-.22-.53-.06-1.06-.11-1.6-.16-.54-.05-1.09-.09-1.65-.13,0,0,0,0,0,0-.54-.04-1.08-.07-1.63-.09-.03,0-.06,0-.08,0-.5-.02-1.01-.04-1.52-.06-3.68,1.84-7.11,3.44-10.69,5.17.69.12,1.39.27,2.11.43.07.01.13.03.2.04.99.22,2.01.48,3.05.76.58.16,1.17.33,1.76.5,1.36.41,2.74.86,4.13,1.36.07.03.14.05.22.08Z"/>
          <path class="cls-2" d="M177.06,68.04c.63.37,1.26.8,1.86,1.29.95.78,1.85,1.72,2.67,2.8.47.62.91,1.28,1.32,1.99,1.77,3.06,2.65,6.44,2.66,9.55.64-.36,1.29-.72,1.93-1.09.12-3.29-.74-6.93-2.65-10.22-.9-1.56-1.96-2.91-3.12-4.01-.51-.49-1.05-.94-1.59-1.33-1.32-.95-2.71-1.61-4.1-1.94-.78-.18-1.55-.26-2.31-.24-1.53.06-2.99.55-4.26,1.53-.51.39-.97.85-1.38,1.36,1.15-.73,2.43-1.1,3.76-1.14,1.71-.05,3.5.45,5.21,1.44Z"/>
          <path class="cls-6" d="M177.11,67.96c.32.19.64.39.95.6.31.22.62.45.92.7.48.4.95.83,1.4,1.3.44.47.87.97,1.28,1.51.24.31.47.64.69.97.22.33.43.67.64,1.03.87,1.51,1.53,3.1,1.98,4.69.45,1.6.68,3.21.69,4.75l1.75-.98c.06-1.65-.14-3.39-.59-5.13-.44-1.69-1.12-3.38-2.05-4.99-.44-.77-.93-1.48-1.44-2.14-.53-.68-1.08-1.29-1.66-1.85-.25-.24-.51-.47-.78-.69-.27-.22-.53-.43-.8-.63-.65-.47-1.33-.87-2.01-1.19-.68-.32-1.37-.57-2.06-.73-.39-.09-.77-.16-1.15-.2-.38-.04-.76-.05-1.13-.04-.76.03-1.51.17-2.23.42-.69.25-1.36.61-1.98,1.09-.25.19-.49.4-.72.62-.1.1-.2.2-.29.3.43-.23.88-.42,1.34-.56.64-.2,1.31-.3,1.99-.32.86-.02,1.74.09,2.63.33.89.24,1.77.62,2.64,1.12h0ZM177.95,68.72c-.31-.22-.62-.41-.94-.6-.85-.49-1.72-.86-2.59-1.1-.86-.24-1.73-.35-2.57-.32-.66.02-1.32.12-1.94.31-.61.19-1.21.46-1.77.81-.03.02-.08.02-.11,0-.04-.03-.05-.09-.01-.13.21-.26.43-.5.66-.73.23-.23.48-.44.73-.64.64-.49,1.32-.86,2.03-1.12.73-.26,1.5-.41,2.28-.44.38-.01.77,0,1.16.04.39.04.79.11,1.18.2.7.17,1.4.42,2.1.74.69.33,1.37.73,2.04,1.21.28.2.55.41.81.63.26.22.53.46.79.7.59.56,1.15,1.19,1.68,1.87.52.67,1,1.39,1.45,2.16.94,1.62,1.62,3.32,2.07,5.03.46,1.77.65,3.55.59,5.23,0,.03-.02.07-.05.08l-1.94,1.09s-.03.01-.04.01c-.05,0-.09-.04-.09-.09,0-1.57-.23-3.22-.69-4.86-.44-1.58-1.09-3.15-1.96-4.65-.2-.35-.41-.69-.63-1.02-.22-.33-.45-.66-.68-.96-.4-.53-.83-1.03-1.27-1.49-.45-.47-.91-.9-1.39-1.29-.3-.24-.6-.47-.91-.69Z"/>
          <path class="cls-2" d="M182.6,63.84c25.1-11.02,25.45-9.99,25.45-9.99,2.16-1.08,4.28-1.33,6.25-.96-2.82-1.71-6.23-2.16-9.75-.4,0,0-.35-1.01-24.72,9.67.97.46,1.89,1.03,2.77,1.68Z"/>
          <path class="cls-6" d="M182.61,63.73c21.27-9.34,24.81-9.99,25.4-9.97,1.06-.53,2.11-.86,3.14-1.02.91-.14,1.81-.14,2.68-.03-1.34-.74-2.81-1.19-4.36-1.25-1.56-.06-3.21.27-4.87,1.1-.04.02-.09,0-.12-.03-.05-.05-1.16-.56-24.43,9.63.42.21.83.43,1.23.68.46.28.9.58,1.33.89h0ZM207.98,53.9s-.31-.97-25.34,10.03c-.03.01-.07.01-.09,0-.44-.33-.9-.63-1.36-.91-.45-.28-.92-.53-1.39-.76-.02,0-.04-.03-.05-.05-.02-.05,0-.1.05-.12,20.65-9.05,24.13-9.69,24.72-9.67h0c1.7-.85,3.37-1.19,4.96-1.12,1.74.07,3.38.62,4.87,1.52.03.02.05.06.05.1,0,.05-.06.08-.11.07-1-.19-2.04-.21-3.11-.05-1.01.16-2.04.48-3.08,1-.04.02-.09,0-.12-.03Z"/>
          <path class="cls-6" d="M306.55,47.06c.24-.3.67-.35.97-.11.3.24.35.67.11.97-5.35,6.73-14.21,11.07-14.24,11.08-.34.17-.75.03-.92-.31-.17-.34-.03-.75.31-.92.03-.01,8.61-4.21,13.77-10.7Z"/>
          <path class="cls-6" d="M298.97,41.42c.24-.3.67-.35.97-.11.3.24.35.67.11.97-5.35,6.73-14.21,11.07-14.24,11.08-.34.17-.75.03-.92-.31-.17-.34-.03-.75.31-.92.03-.01,8.61-4.21,13.77-10.7Z"/>
          <path class="cls-6" d="M315.69,63.01c.24-.3.67-.35.97-.11.3.24.35.67.11.97-5.35,6.73-14.21,11.07-14.24,11.08-.34.17-.75.03-.92-.31-.17-.34-.03-.75.31-.92.02-.01,8.61-4.21,13.77-10.7Z"/>
          <path class="cls-6" d="M211.99,38.42c-.37.11-.75-.1-.85-.47-.11-.36.1-.75.47-.85,11.63-3.43,14.79-8.08,14.8-8.1.22-.31.64-.39.96-.17.31.22.39.64.17.95-.01.02-3.44,5.06-15.54,8.63Z"/>
          <path class="cls-6" d="M207.71,33.56c-.36.11-.75-.1-.85-.47-.11-.36.1-.75.46-.85,11.63-3.43,14.79-8.08,14.8-8.1.22-.31.65-.39.96-.17.31.22.39.64.17.96-.01.01-3.44,5.06-15.54,8.63Z"/>
          <path class="cls-6" d="M220.35,53.4c-.36.11-.75-.1-.85-.47-.11-.36.1-.75.46-.85,11.63-3.43,14.79-8.08,14.8-8.1.22-.31.64-.39.96-.17.31.22.39.64.17.96,0,.01-3.44,5.06-15.54,8.63Z"/>
          <path class="cls-2" d="M185.71,27.35c2.05.23,4.37.87,6.83,1.88,1.41.58,2.86,1.28,4.34,2.1,3.28,1.82,6.68,4.21,9.96,7.11,3.39,2.99,6.66,6.52,9.54,10.52-3.07-7.62-8.32-14.4-14.96-19.01-1.21-.84-2.46-1.6-3.76-2.29-5.25-2.78-11.18-4.23-17.47-3.83,0,0-.39-.02-30.87,9.24,1.36.49,2.68,1.02,3.95,1.6,3.13-.98,5.91-1.89,8.43-2.71,10.73-3.5,16.68-5.44,24-4.62Z"/>
          <path class="cls-2" d="M279.12,49.68c-6.41-2.94-13.63-3.84-20.92-1.79,0,0-.39.06-29.63,16.37-1.24.69-2.53,1.41-3.87,2.16-.72.4-1.46.82-2.22,1.24-.07.04-.15.08-.22.13h0c.07,0,.14.02.21.02.7.08,1.4.17,2.1.27,1.17.17,2.33.36,3.49.59,6.41-4.62,13.08-7.73,17.53-10.41,6.06-3.64,9.33-6.14,14.53-7.44,3.95-.99,9.14-.67,14.77,1.22,2.62.88,5.34,2.11,8.08,3.71,5.1,2.97,10.28,7.23,15.04,12.95-2.92-6.07-7.29-11.39-12.56-15.27-.23-.02-.45-.16-.56-.38,0-.01-.01-.02-.02-.04-1.82-1.29-3.75-2.41-5.75-3.32Z"/>
        </g>
        <g>
          <path class="cls-6" d="M247.41,306.78c.54-.19,1.21-.4,1.72-.66l.56-.28.62-.05c.14-.01.41-.18.41-.04l-.08,3.51c-5.53,8.4,1.54,7.13,2.37,8.49,1.23,2.01-1.96,4.21-4.35,6.11-.31.25-.62.5-.94.76l-.52.19c-29.86,10.69-77.01,8.95-104.32-9.25,7.29,1.66,17.39,5.79,25.52,6.89,23.5,3.2,46.98.49,67.54-8.4,5.35-2.32,7.82-5.99,11.47-7.25Z"/>
          <path class="cls-6" d="M269.27,294.14c15.52-10.98,28.83-25.64,30.75-45.32,1.73-17.71-6.17-35.28-15.52-49.84-4.02-6.26-8.35-12.21-12.78-18.19-3.7-4.99-7.43-10-10.61-15.35-8.59-14.45-11.05-29.06-11.71-45.68-.38-9.52,2.3-19.24,8.43-26.64,4.64-5.6,11.7-10.2,19.21-10.02,1.44.03,2.88.2,4.28.53,1.32.31,2.6.77,3.8,1.4,7.54,3.99,7.97,12.35,6.13,19.77-.52,2.11-.98,4.23-1.28,6.39-1.41,10.08,1.4,20.81,4.12,30.44,1.69,5.97,3.81,11.89,6.83,17.32,8.8,15.84,17.49,32.68,23.12,49.94,4.79,14.68,7.49,30.38,4.41,45.71-3.91,19.41-16.24,33.93-31.95,45.29-43.88,31.75-99.2,41.82-148.85,17.9l-8.28-4.43c26.22,7.39,52.38,10.29,76.53,5.56,18.51-3.63,35.28-11.98,53.37-24.78Z"/>
          <path class="cls-7" d="M161.62,320.67c48.23,14.15,93.23,5.36,132.98-23.41,49.79-36.03,33.67-82.39,3.48-136.73-2.53-4.55-4.92-10.22-7.12-18.02-5.73-20.29-5.49-27.89-2.87-38.49,3.43-13.88-4.38-17.52-11.13-17.67-11.1-.26-25.13,12.75-24.32,33.29,1.66,41.72,15.46,47.81,34.58,77.59,22.8,35.5,25.22,70.33-16.09,99.57-19.98,14.14-36.57,21.86-53.67,25.25-16.18,3.21-32.93,2.2-55.86-1.38Z"/>
          <path class="cls-6" d="M274.34,94.19c.63-.08,1.2.36,1.28.99.08.63-.36,1.2-.99,1.28-3.31.42-6.46,2.26-8.98,5.06-2.53,2.81-4.41,6.56-5.18,10.81-1.39,7.63-.4,17.07,1.98,26.4,2.7,10.58,7.2,20.98,12.07,28.42,2.96,4.53,6.07,8.89,9.17,13.25,14.55,20.44,29.01,40.75,24.55,71.17-2.71,18.45-15.4,36.01-32.87,49.05-17.6,13.13-40.08,21.69-62.09,21.94-.63,0-1.15-.5-1.15-1.13,0-.63.5-1.15,1.13-1.15,21.49-.24,43.49-8.63,60.73-21.49,17.01-12.69,29.36-29.72,31.97-47.54,4.33-29.51-9.86-49.44-24.15-69.51-3.15-4.42-6.3-8.84-9.23-13.32-5-7.65-9.61-18.3-12.37-29.12-2.45-9.61-3.46-19.38-2.01-27.36.85-4.69,2.93-8.84,5.73-11.94,2.88-3.19,6.52-5.3,10.39-5.8Z"/>
          <path class="cls-6" d="M274.18,96.67c-.62.1-1.21-.32-1.32-.94-.1-.62.32-1.21.94-1.32,2.82-.48,4.99-.38,6.65.1,1.65.47,2.8,1.3,3.6,2.29.8.99,1.22,2.13,1.41,3.22.25,1.46.07,2.86-.17,3.74-2.9,10.19-3.11,20.84-.06,33.27,3.08,12.53,9.45,26.85,19.7,44.28,11.84,20.14,18.19,40.28,19.71,57.89,1.63,18.95-2.34,35.02-11.08,45.05-.42.48-1.14.52-1.62.11-.48-.42-.52-1.14-.11-1.62,8.33-9.56,12.1-25.02,10.52-43.36-1.49-17.29-7.74-37.1-19.4-56.92-10.37-17.63-16.83-32.15-19.96-44.89-3.15-12.84-2.93-23.88.08-34.44.18-.63.3-1.66.12-2.73-.13-.75-.41-1.52-.93-2.17-.52-.65-1.3-1.19-2.45-1.52-1.35-.39-3.18-.46-5.64-.04Z"/>
          <path class="cls-6" d="M273.11,105.32c-2.88,0-5.54,3.18-5.95,7.11-.41,3.92,1.59,7.11,4.47,7.11s5.54-3.18,5.95-7.11c.41-3.92-1.59-7.11-4.47-7.11Z"/>
        </g>
      </g>
    </g>
  </g>
</svg>